<svg width="21" height="21" viewBox="0 0 21 21" fill="none" xmlns="http://www.w3.org/2000/svg">
<path id="Vector" d="M16.5 16.9191C15.39 16.9191 14.5 17.8091 14.5 18.9191C14.5 19.4495 14.7107 19.9582 15.0858 20.3333C15.4609 20.7084 15.9696 20.9191 16.5 20.9191C17.0304 20.9191 17.5391 20.7084 17.9142 20.3333C18.2893 19.9582 18.5 19.4495 18.5 18.9191C18.5 18.3886 18.2893 17.8799 17.9142 17.5049C17.5391 17.1298 17.0304 16.9191 16.5 16.9191ZM0.5 0.919067V2.91907H2.5L6.1 10.5091L4.74 12.9591C4.59 13.2391 4.5 13.5691 4.5 13.9191C4.5 14.4495 4.71071 14.9582 5.08579 15.3333C5.46086 15.7084 5.96957 15.9191 6.5 15.9191H18.5V13.9191H6.92C6.8537 13.9191 6.79011 13.8927 6.74322 13.8458C6.69634 13.799 6.67 13.7354 6.67 13.6691C6.67 13.6191 6.68 13.5791 6.7 13.5491L7.6 11.9191H15.05C15.8 11.9191 16.46 11.4991 16.8 10.8891L20.38 4.41907C20.45 4.25907 20.5 4.08907 20.5 3.91907C20.5 3.65385 20.3946 3.3995 20.2071 3.21196C20.0196 3.02442 19.7652 2.91907 19.5 2.91907H4.71L3.77 0.919067M6.5 16.9191C5.39 16.9191 4.5 17.8091 4.5 18.9191C4.5 19.4495 4.71071 19.9582 5.08579 20.3333C5.46086 20.7084 5.96957 20.9191 6.5 20.9191C7.03043 20.9191 7.53914 20.7084 7.91421 20.3333C8.28929 19.9582 8.5 19.4495 8.5 18.9191C8.5 18.3886 8.28929 17.8799 7.91421 17.5049C7.53914 17.1298 7.03043 16.9191 6.5 16.9191Z" fill="#FFFBF1"/>
</svg>
