<svg width="300" height="146" viewBox="0 0 300 146" fill="none" xmlns="http://www.w3.org/2000/svg">
<path d="M80.4982 37.0654C76.8328 45.9709 71.3418 50.4218 64.2764 50.4218C59.0473 50.4218 58.9818 47.5454 58.9818 41.9782V18.8582C58.9818 14.6691 59.2473 12.7091 62.4473 12.0582V10.5491H46.3564V12.0582C49.56 12.7091 49.7564 14.7382 49.7564 18.8582V45.9672C49.7564 50.0909 49.56 52.0618 46.3564 52.7127V54.2218H73.4291C74.5418 54.2218 75.5855 54.2218 76.6982 54.9382L81.9928 37.0618H80.4946L80.4982 37.0654Z" fill="#FFFBF1"/>
<path d="M122.993 46.1673L112.724 16.1163C112.469 15.4 112.338 14.8036 112.338 14.2763C112.338 13.2291 112.855 12.5782 114.033 12.0582V10.5491H96.5128V12.0582C97.6909 12.5782 98.2182 13.2291 98.2182 14.2763C98.2182 14.8036 98.0873 15.4 97.8218 16.1163L87.1018 44.5273C85.2655 49.3745 83.9564 52.1309 80.6218 52.7164V54.2255H94.8182V52.7164C92.5964 52.6509 91.5491 51.6036 91.5491 49.3781C91.5491 48.7927 91.7382 47.2836 92.4618 45.3236L95.7964 36.1564C106.32 37.0727 112.724 42.6364 112.724 48.8618C112.724 50.9564 111.942 52.1345 110.047 52.72V54.2291H127.964V52.72C125.08 52.5236 124.364 50.2291 122.989 46.1745L122.993 46.1673ZM97.4909 31.96L102.982 16.5091L109.851 36.6654C106.647 33.5891 102.596 32.4109 97.4909 31.96Z" fill="#FFFBF1"/>
<path fill-rule="evenodd" clip-rule="evenodd" d="M139.131 17.0502C140.966 14.1513 150.037 13.6114 153.487 16.6982L153.494 16.6861L153.495 16.7382C155.727 18.5018 157.669 21.1236 159.418 24.5564L160.982 24.4255L158.298 9.83273C157.131 10.68 156.018 11.0691 155.029 11.0691C154.785 11.0691 154.426 10.9932 153.941 10.8768C153.738 10.8111 153.471 10.7479 153.124 10.6982C152.938 10.6717 152.636 10.6103 152.238 10.5294C149.908 10.0556 144.275 8.91039 139.305 10.1528C138.41 10.3765 137.675 10.6476 137.075 10.9514C132.492 12.836 129.993 16.6597 129.993 21.8764C129.993 27.8364 133.458 29.9236 139.215 31.8945L148.495 35.1018C152.942 36.6691 155.691 37.7164 155.691 42.1745C155.691 47.4764 151.309 50.8145 145.025 50.8145C137.575 50.8145 131.553 45.6363 129.142 36.4109L127.567 36.4763L130.967 54.9345C131.749 53.6909 132.727 53.04 133.651 53.04C134.1 53.04 134.801 53.2459 135.763 53.5285C137.87 54.1475 141.23 55.1345 145.945 55.1345C157.513 55.1345 165.029 48.4545 165.029 39.4873C165.029 33.0073 161.309 28.8109 153.462 26.3964H153.465L145.487 23.9709C141.105 22.5927 138.687 21.7455 138.687 18.9236C138.687 18.2618 138.836 17.6327 139.131 17.0655L139.131 17.0502Z" fill="#FFFBF1"/>
<path d="M206.56 37.0655C202.378 45.9054 196.356 50.3564 188.578 50.3564C182.887 50.3564 182.171 48.3927 182.171 44.0727V26.3964H185.836C191.647 26.3964 194.069 28.4909 195.905 34.0546H197.338L194.916 18.5382H193.484C192.891 22.1964 190.931 22.6618 186.749 22.6618H182.171V19.6546C182.171 15.5891 182.953 14.4109 187.269 14.4109C194.269 14.4109 200.353 18.28 202.833 24.24H204.338L200.476 9.24365C199.76 10.16 198.385 10.5564 196.491 10.5564H169.484V12.0655C172.753 12.7164 172.949 14.8109 172.949 18.8655V45.9745C172.949 50.0291 172.753 52.0691 169.484 52.72V54.2291H197.935C199.302 54.2291 200.476 54.2291 201.92 55.5418L208.073 37.0727H206.567L206.56 37.0655Z" fill="#FFFBF1"/>
<path d="M248.669 45.9018C245.204 36.4109 240.625 30.8472 237.949 28.2909C244.287 24.8872 247.36 21.7454 247.36 17.2909C247.36 12.3782 244.222 10.5454 237.949 10.5454H211.524V12.0545C214.804 12.7054 215.055 14.6691 215.055 18.8545V45.9636C215.055 50.1527 214.8 52.0581 211.524 52.709V54.2181H228.527V52.709C224.807 52.3781 224.476 50.4182 224.476 45.9636V33.389C226.105 33.069 227.811 32.6727 229.64 32.0872C236.705 39.4182 239.844 46.68 239.844 50.2181C239.844 51.4618 239.316 51.9272 237.687 52.709V54.2181H253.644V52.709C250.76 52.189 250.113 49.7672 248.669 45.8981V45.9018ZM224.476 29.4036V17.8763C224.476 15.1309 224.927 14.1491 230.364 14.1491C235.327 14.1491 237.684 15.5163 237.684 19.12C237.684 23.44 233.371 26.5236 224.476 29.4V29.4036Z" fill="#FFFBF1"/>
<path d="M8.68364 132.771C13.9455 131.716 14.3636 128.662 14.3636 121.92V78.3018C14.3636 71.56 13.9418 68.4 8.68364 67.3454V64.9236H35.2V67.3454C29.9382 68.4 29.52 71.56 29.52 78.3018V84.3091H56.56V78.3018C56.56 71.56 56.0327 68.4 50.7746 67.3454V64.9236H77.2909V67.3454C72.0291 68.4 71.6109 71.56 71.6109 78.3018V121.92C71.6109 128.662 72.0327 131.72 77.2909 132.771V135.193H50.7746V132.771C56.0364 131.716 56.56 128.662 56.56 121.92V90.6291H29.52V121.92C29.52 128.662 29.9418 131.72 35.2 132.771V135.193H8.68364V132.771Z" fill="#FFFBF1"/>
<path d="M136.109 62.8145L142.316 86.9417H139.895C135.898 77.3526 126.113 71.1381 114.855 71.1381C107.909 71.1381 106.647 73.0363 106.647 79.5672V84.4145H114.011C120.745 84.4145 123.902 83.6763 124.847 77.7781H127.164L131.058 102.749H128.742C125.796 93.7926 121.902 90.4217 112.538 90.4217H106.647V118.869C106.647 125.822 107.804 128.982 116.96 128.982C129.48 128.982 139.16 121.818 145.895 107.593H148.313L138.422 137.302C136.105 135.196 134.215 135.196 132.004 135.196H86.2327V132.774C91.4946 131.72 91.8109 128.454 91.8109 121.924V78.3054C91.8109 71.7744 91.4946 68.4035 86.2327 67.349V64.9272H129.687C132.738 64.9272 134.949 64.2945 136.105 62.8181L136.109 62.8145Z" fill="#FFFBF1"/>
<path d="M161.785 127.4C161.785 130.982 163.469 132.669 167.047 132.775V135.196H144.215V132.775C149.582 131.825 151.684 127.4 154.633 119.607L171.887 73.88C172.309 72.72 172.52 71.7709 172.52 70.9309C172.52 69.2436 171.68 68.1927 169.785 67.3491V64.9272H197.985V67.3491C196.091 68.1927 195.251 69.2436 195.251 70.9309C195.251 71.7745 195.462 72.7236 195.884 73.88L212.404 122.24C214.615 128.771 215.771 132.458 220.4 132.775V135.196H191.571V132.775C194.622 131.825 195.884 129.931 195.884 126.56C195.884 116.553 185.575 107.596 168.633 106.12L163.265 120.869C162.109 124.029 161.793 126.455 161.793 127.4H161.785ZM191.247 106.96L180.2 74.5091L171.36 99.3745C179.567 100.113 186.091 102.007 191.247 106.96Z" fill="#FFFBF1"/>
<path d="M222.08 132.771C227.342 131.716 227.76 128.662 227.76 121.92V78.3018C227.76 71.56 227.338 68.4 222.08 67.3454V64.9236H248.069C260.487 64.9236 269.745 67.4509 277.636 74.3018C286.16 81.6763 291.316 92.9491 291.316 104.225C291.316 112.338 288.582 119.502 283.425 125.193C275.535 133.938 267.011 135.204 255.018 135.204H222.084V132.782L222.08 132.771ZM242.913 119.811C242.913 125.498 243.018 128.978 252.171 128.978C266.062 128.978 274.898 118.127 274.898 103.902C274.898 84.8327 261.851 71.5563 249.436 71.5563C245.124 71.5563 242.913 73.2436 242.913 75.6654V119.811Z" fill="#FFFBF1"/>
</svg>
